<?xml version="1.0" encoding="UTF-8"?>
<svg width="12px" height="7px" viewBox="0 0 12 7" version="1.1" xmlns="http://www.w3.org/2000/svg" xmlns:xlink="http://www.w3.org/1999/xlink">
    <!-- Generator: Sketch 46.2 (44496) - http://www.bohemiancoding.com/sketch -->
    <title>Button / at Expander Panel/ Expand Arrow / Blue / Normal</title>
    <desc>Created with Sketch.</desc>
    <defs></defs>
    <g id="Sections" stroke="none" stroke-width="1" fill="none" fill-rule="evenodd">
        <g id="TASS-1440-Search" transform="translate(-354.000000, -217.000000)">
            <g id="Page" transform="translate(0.000000, -250.000000)">
                <g id="Content" transform="translate(16.000000, 312.000000)">
                    <g id="Feed" transform="translate(0.000000, 131.000000)">
                        <g id="Arrow-Expander-/-Basic" transform="translate(322.000000, 5.000000)">
                            <rect id="Container" x="0" y="0" width="44" height="44"></rect>
                            <path d="M20,22 L20,17 C20,16.4477153 19.5522847,16 19,16 L19,16 L19,16 C18.4477153,16 18,16.4477153 18,17 L18,17 L18,23 C18,23.2761424 18.1119288,23.5261424 18.2928932,23.7071068 C18.4738576,23.8880712 18.7238576,24 19,24 L25,24 C25.5522847,24 26,23.5522847 26,23 C26,22.4477153 25.5522847,22 25,22 L20,22 Z" id="Combined-Shape" fill="#00077B" fill-rule="evenodd" transform="translate(22.000000, 20.000000) rotate(-45.000000) translate(-22.000000, -20.000000) "></path>
                        </g>
                    </g>
                </g>
            </g>
        </g>
    </g>
</svg>