<svg width="100" height="100" viewBox="0 0 100 100" fill="none" xmlns="http://www.w3.org/2000/svg">
<rect width="100" height="100" fill="white"/>
<rect width="100" height="100" fill="#000C77"/>
<rect x="6" y="5" width="88" height="2" fill="white"/>
<path d="M7.71875 57.7891H10.1953L17.8047 61.7734V57.7891H20.2812V70H17.8047V64.3984L10.1953 60.4375V70H7.71875V57.7891ZM23.7344 57.7891H34.1328V59.9609H26.2109V62.3984H33.2266V64.4375H26.2109V67.8359H34.2969V70H23.7344V57.7891ZM35.4688 57.7891H38.1719L41.4844 65.6719L42.25 67.5781L42.8516 65.6719L44.0703 62.7969L41.875 57.7891H44.4219L45.3203 60.1719L46.1562 57.7891H48.7031L46.5078 62.7969L47.75 65.7344L48.5 67.5781L49.0781 65.7031L52.4062 57.7891H55.1094L49.7188 70H47.2656L46.1797 67.5781L45.2969 65.2266L44.4141 67.5781L43.3125 70H40.8594L35.4688 57.7891ZM57.5703 66.3672C58.013 66.6172 58.4609 66.8438 58.9141 67.0469C59.3724 67.2448 59.8464 67.4141 60.3359 67.5547C60.8255 67.6901 61.3385 67.7943 61.875 67.8672C62.4167 67.9401 62.9922 67.9766 63.6016 67.9766C64.3359 67.9766 64.9609 67.9297 65.4766 67.8359C65.9922 67.737 66.4115 67.6042 66.7344 67.4375C67.0625 67.2656 67.2995 67.0625 67.4453 66.8281C67.5964 66.5938 67.6719 66.3385 67.6719 66.0625C67.6719 65.6198 67.487 65.2708 67.1172 65.0156C66.7474 64.7552 66.1771 64.625 65.4062 64.625C65.0677 64.625 64.7109 64.6484 64.3359 64.6953C63.9609 64.737 63.5807 64.7839 63.1953 64.8359C62.8151 64.888 62.4375 64.9375 62.0625 64.9844C61.6927 65.026 61.3438 65.0469 61.0156 65.0469C60.4688 65.0469 59.9427 64.9766 59.4375 64.8359C58.9375 64.6953 58.4922 64.4844 58.1016 64.2031C57.7161 63.9219 57.4089 63.5703 57.1797 63.1484C56.9505 62.7266 56.8359 62.2344 56.8359 61.6719C56.8359 61.3385 56.8802 61.0078 56.9688 60.6797C57.0625 60.3516 57.2083 60.0391 57.4062 59.7422C57.6094 59.4401 57.8698 59.1615 58.1875 58.9062C58.5052 58.6458 58.888 58.4219 59.3359 58.2344C59.7891 58.0469 60.3099 57.901 60.8984 57.7969C61.4922 57.6875 62.1667 57.6328 62.9219 57.6328C63.4688 57.6328 64.0182 57.6641 64.5703 57.7266C65.1224 57.7839 65.6589 57.8672 66.1797 57.9766C66.7057 58.0859 67.2109 58.2188 67.6953 58.375C68.1797 58.526 68.6302 58.6953 69.0469 58.8828L67.9609 60.8828C67.6172 60.7318 67.2474 60.5938 66.8516 60.4688C66.4557 60.3385 66.0417 60.2266 65.6094 60.1328C65.1771 60.0391 64.7292 59.9661 64.2656 59.9141C63.8073 59.8568 63.3385 59.8281 62.8594 59.8281C62.1771 59.8281 61.6146 59.8776 61.1719 59.9766C60.7344 60.0755 60.3854 60.2031 60.125 60.3594C59.8646 60.5104 59.6823 60.6823 59.5781 60.875C59.4792 61.0625 59.4297 61.25 59.4297 61.4375C59.4297 61.8021 59.5938 62.1016 59.9219 62.3359C60.25 62.5651 60.75 62.6797 61.4219 62.6797C61.6927 62.6797 62.0026 62.6615 62.3516 62.625C62.7057 62.5833 63.0755 62.5391 63.4609 62.4922C63.8516 62.4453 64.2474 62.4036 64.6484 62.3672C65.0547 62.3255 65.4479 62.3047 65.8281 62.3047C66.5469 62.3047 67.1823 62.3854 67.7344 62.5469C68.2917 62.7083 68.7578 62.9401 69.1328 63.2422C69.5078 63.5391 69.7917 63.901 69.9844 64.3281C70.1771 64.75 70.2734 65.224 70.2734 65.75C70.2734 66.4531 70.1094 67.0807 69.7812 67.6328C69.4583 68.1797 68.9948 68.6432 68.3906 69.0234C67.7917 69.3984 67.0677 69.6849 66.2188 69.8828C65.3698 70.0755 64.4245 70.1719 63.3828 70.1719C62.6953 70.1719 62.0234 70.1276 61.3672 70.0391C60.7109 69.9557 60.0807 69.8359 59.4766 69.6797C58.8776 69.5182 58.3047 69.3281 57.7578 69.1094C57.2161 68.8854 56.7135 68.6406 56.25 68.375L57.5703 66.3672ZM11.8984 77.7891H14.5234L20.4297 90H17.8281L16.8516 87.9453H9.71875L8.77344 90H6.16406L11.8984 77.7891ZM15.875 85.9062L13.2344 80.3594L10.6641 85.9062H15.875ZM21.4922 83.7812C21.4922 82.9219 21.6536 82.1198 21.9766 81.375C22.2995 80.625 22.7708 79.974 23.3906 79.4219C24.0104 78.8698 24.7708 78.4349 25.6719 78.1172C26.5781 77.7995 27.6146 77.6406 28.7812 77.6406C29.2031 77.6406 29.625 77.6641 30.0469 77.7109C30.474 77.7526 30.8932 77.8203 31.3047 77.9141C31.7214 78.0078 32.125 78.1276 32.5156 78.2734C32.9115 78.4141 33.2865 78.5833 33.6406 78.7812L32.5 80.6562C32.2865 80.5312 32.0443 80.4193 31.7734 80.3203C31.5026 80.2161 31.2109 80.1302 30.8984 80.0625C30.5911 79.9896 30.2708 79.9349 29.9375 79.8984C29.6094 79.862 29.2786 79.8438 28.9453 79.8438C28.1745 79.8438 27.487 79.9427 26.8828 80.1406C26.2786 80.3333 25.7682 80.6068 25.3516 80.9609C24.9349 81.3099 24.6172 81.7292 24.3984 82.2188C24.1797 82.7083 24.0703 83.2448 24.0703 83.8281C24.0703 84.4323 24.1849 84.987 24.4141 85.4922C24.6432 85.9974 24.9688 86.4323 25.3906 86.7969C25.8125 87.1615 26.3229 87.4479 26.9219 87.6562C27.5208 87.8594 28.1901 87.9609 28.9297 87.9609C29.5182 87.9609 30.0573 87.8958 30.5469 87.7656C31.0365 87.6302 31.4635 87.4401 31.8281 87.1953C32.1927 86.9505 32.4896 86.6562 32.7188 86.3125C32.9479 85.9635 33.099 85.5729 33.1719 85.1406H28.9062V83.1016H35.3984V83.1094L35.4062 83.1016C35.5365 83.7266 35.5755 84.3359 35.5234 84.9297C35.4766 85.5182 35.3411 86.0755 35.1172 86.6016C34.8984 87.1224 34.5964 87.6016 34.2109 88.0391C33.8255 88.4766 33.3646 88.8542 32.8281 89.1719C32.2917 89.4844 31.6823 89.7292 31 89.9062C30.3177 90.0781 29.5703 90.1641 28.7578 90.1641C27.6224 90.1641 26.6042 89.9974 25.7031 89.6641C24.8073 89.3307 24.0469 88.875 23.4219 88.2969C22.7969 87.7188 22.3177 87.0417 21.9844 86.2656C21.6562 85.4896 21.4922 84.6615 21.4922 83.7812ZM38.3281 77.7891H48.7266V79.9609H40.8047V82.3984H47.8203V84.4375H40.8047V87.8359H48.8906V90H38.3281V77.7891ZM51.625 77.7891H54.1016L61.7109 81.7734V77.7891H64.1875V90H61.7109V84.3984L54.1016 80.4375V90H51.625V77.7891ZM66.8984 83.8203C66.8984 82.9505 67.0625 82.1406 67.3906 81.3906C67.7188 80.6354 68.1927 79.9818 68.8125 79.4297C69.4375 78.8724 70.1979 78.4349 71.0938 78.1172C71.9948 77.7995 73.013 77.6406 74.1484 77.6406C75.1432 77.6406 76.0547 77.7422 76.8828 77.9453C77.7161 78.1432 78.4896 78.4479 79.2031 78.8594L78.0625 80.7344C77.849 80.5938 77.6016 80.4688 77.3203 80.3594C77.0443 80.25 76.7474 80.1589 76.4297 80.0859C76.1172 80.0078 75.7917 79.9479 75.4531 79.9062C75.1198 79.8646 74.7891 79.8438 74.4609 79.8438C73.6693 79.8438 72.9635 79.9427 72.3438 80.1406C71.724 80.3333 71.2005 80.6068 70.7734 80.9609C70.3516 81.3099 70.0286 81.7292 69.8047 82.2188C69.5859 82.7031 69.4766 83.237 69.4766 83.8203C69.4766 84.4245 69.5911 84.9792 69.8203 85.4844C70.0495 85.9896 70.3802 86.4271 70.8125 86.7969C71.25 87.1615 71.7812 87.4479 72.4062 87.6562C73.0365 87.8594 73.7474 87.9609 74.5391 87.9609C74.8984 87.9609 75.2552 87.9349 75.6094 87.8828C75.9635 87.8307 76.3047 87.7604 76.6328 87.6719C76.9661 87.5781 77.2865 87.4688 77.5938 87.3438C77.901 87.2135 78.1875 87.0729 78.4531 86.9219L79.5938 88.7969C78.9271 89.224 78.1562 89.5599 77.2812 89.8047C76.4062 90.0443 75.4766 90.1641 74.4922 90.1641C73.237 90.1641 72.1354 90.0026 71.1875 89.6797C70.2396 89.3516 69.4479 88.9036 68.8125 88.3359C68.1771 87.763 67.6979 87.0911 67.375 86.3203C67.0573 85.5443 66.8984 84.7109 66.8984 83.8203ZM86.0703 86.9766L80.7344 77.7891H83.5391L87.2969 84.7344L91.0078 77.7891H93.8125L88.5469 86.9609V90H86.0703V86.9766Z" fill="white"/>
</svg>
